<?xml version="1.0" encoding="utf-8"?><svg xmlns="http://www.w3.org/2000/svg" xmlns:xlink="http://www.w3.org/1999/xlink"><symbol fill="none" viewBox="0 0 17 17" id="phone-blue-icon" xmlns="http://www.w3.org/2000/svg"><path d="m5.125 1.781 1.25 3c.219.5.094 1.094-.344 1.438L4.5 7.5a10.499 10.499 0 0 0 5 5l1.281-1.531a1.206 1.206 0 0 1 1.438-.344l3 1.25c.594.219.875.875.719 1.469l-.75 2.75A1.238 1.238 0 0 1 14 17C6.25 17 0 10.75 0 3c0-.563.375-1.031.906-1.188l2.75-.75c.594-.156 1.25.125 1.469.72Z" fill="#008ED5"/></symbol></svg>